<mxfile host="www.draw.io" modified="2019-12-27T06:04:20.111Z" agent="Mozilla/5.0 (Macintosh; Intel Mac OS X 10_14_6) AppleWebKit/537.36 (KHTML, like Gecko) Chrome/79.0.3945.88 Safari/537.36" etag="hA1zXpWMa7088dHH2Na4" version="12.4.3" type="github" pages="1">
  <diagram id="a9a2d16b-3a39-263e-1d7e-0bc55c1d89fc" name="Page-1">
    <mxGraphModel dx="2373" dy="852" grid="1" gridSize="10" guides="1" tooltips="1" connect="1" arrows="1" fold="1" page="1" pageScale="1" pageWidth="827" pageHeight="1169" background="#ffffff" math="0" shadow="0">
      <root>
        <mxCell id="0"/>
        <mxCell id="1" parent="0"/>
        <mxCell id="2" value="エージェント i（リーダー）" style="shape=umlActor;verticalLabelPosition=bottom;labelBackgroundColor=#ffffff;verticalAlign=top;html=1;" parent="1" vertex="1">
          <mxGeometry x="130" y="120" width="30" height="60" as="geometry"/>
        </mxCell>
        <mxCell id="3" value="エージェントa&lt;div&gt;&lt;br&gt;&lt;/div&gt;" style="shape=umlActor;verticalLabelPosition=bottom;labelBackgroundColor=#ffffff;verticalAlign=top;html=1;" parent="1" vertex="1">
          <mxGeometry x="270" y="120" width="30" height="60" as="geometry"/>
        </mxCell>
        <mxCell id="8" value="&lt;div&gt;エージェントb&lt;/div&gt;" style="shape=umlActor;verticalLabelPosition=bottom;labelBackgroundColor=#ffffff;verticalAlign=top;html=1;" parent="1" vertex="1">
          <mxGeometry x="395" y="120" width="30" height="60" as="geometry"/>
        </mxCell>
        <mxCell id="9" value="&lt;div&gt;エージェントc&lt;br&gt;&lt;/div&gt;" style="shape=umlActor;verticalLabelPosition=bottom;labelBackgroundColor=#ffffff;verticalAlign=top;html=1;" parent="1" vertex="1">
          <mxGeometry x="535" y="120" width="30" height="60" as="geometry"/>
        </mxCell>
        <mxCell id="20" value="" style="endArrow=none;html=1;shadow=0;fillColor=none;" parent="1" source="170" edge="1">
          <mxGeometry width="50" height="50" relative="1" as="geometry">
            <mxPoint x="140" y="1550" as="sourcePoint"/>
            <mxPoint x="140" y="210" as="targetPoint"/>
          </mxGeometry>
        </mxCell>
        <mxCell id="21" value="" style="endArrow=none;html=1;shadow=0;exitX=0.5;exitY=0;" parent="1" edge="1">
          <mxGeometry width="50" height="50" relative="1" as="geometry">
            <mxPoint x="284" y="1485" as="sourcePoint"/>
            <mxPoint x="282" y="215" as="targetPoint"/>
          </mxGeometry>
        </mxCell>
        <mxCell id="22" value="" style="endArrow=none;html=1;shadow=0;exitX=0.5;exitY=0;" parent="1" edge="1">
          <mxGeometry width="50" height="50" relative="1" as="geometry">
            <mxPoint x="413.5" y="1360.8235294117649" as="sourcePoint"/>
            <mxPoint x="413" y="210" as="targetPoint"/>
          </mxGeometry>
        </mxCell>
        <mxCell id="24" value="タスク取り出し" style="rounded=1;whiteSpace=wrap;html=1;" parent="1" vertex="1">
          <mxGeometry x="80" y="225" width="120" height="30" as="geometry"/>
        </mxCell>
        <mxCell id="25" value="自分が処理する&lt;div&gt;サブタスク選択&lt;/div&gt;" style="rounded=1;whiteSpace=wrap;html=1;" parent="1" vertex="1">
          <mxGeometry x="85" y="280" width="115" height="30" as="geometry"/>
        </mxCell>
        <mxCell id="26" value="チーム参加要請を出すエージェントの選定" style="rounded=1;whiteSpace=wrap;html=1;" parent="1" vertex="1">
          <mxGeometry x="75" y="330" width="130" height="40" as="geometry"/>
        </mxCell>
        <mxCell id="29" value="&lt;div&gt;エージェントd&lt;br&gt;&lt;/div&gt;" style="shape=umlActor;verticalLabelPosition=bottom;labelBackgroundColor=#ffffff;verticalAlign=top;html=1;" parent="1" vertex="1">
          <mxGeometry x="655" y="120" width="30" height="60" as="geometry"/>
        </mxCell>
        <mxCell id="30" value="" style="endArrow=none;html=1;shadow=0;exitX=0.565;exitY=0.029;exitPerimeter=0;" parent="1" source="118" edge="1">
          <mxGeometry width="50" height="50" relative="1" as="geometry">
            <mxPoint x="545" y="800" as="sourcePoint"/>
            <mxPoint x="545" y="210" as="targetPoint"/>
          </mxGeometry>
        </mxCell>
        <mxCell id="32" value="" style="endArrow=none;html=1;shadow=0;" parent="1" edge="1">
          <mxGeometry width="50" height="50" relative="1" as="geometry">
            <mxPoint x="670" y="1480" as="sourcePoint"/>
            <mxPoint x="670" y="211" as="targetPoint"/>
          </mxGeometry>
        </mxCell>
        <mxCell id="37" value="参加要請の送信" style="shape=step;perimeter=stepPerimeter;whiteSpace=wrap;html=1;fixedSize=1;" parent="1" vertex="1">
          <mxGeometry x="70" y="400" width="140" height="40" as="geometry"/>
        </mxCell>
        <mxCell id="42" value="" style="endArrow=classic;html=1;shadow=0;exitX=1;exitY=0.5;" parent="1" source="37" edge="1">
          <mxGeometry width="50" height="50" relative="1" as="geometry">
            <mxPoint x="220" y="430" as="sourcePoint"/>
            <mxPoint x="670" y="560" as="targetPoint"/>
            <Array as="points"/>
          </mxGeometry>
        </mxCell>
        <mxCell id="43" value="" style="endArrow=classic;html=1;shadow=0;exitX=1;exitY=0.5;" parent="1" source="37" edge="1">
          <mxGeometry width="50" height="50" relative="1" as="geometry">
            <mxPoint x="220" y="430" as="sourcePoint"/>
            <mxPoint x="540" y="560" as="targetPoint"/>
            <Array as="points"/>
          </mxGeometry>
        </mxCell>
        <mxCell id="44" value="" style="endArrow=classic;html=1;shadow=0;" parent="1" edge="1">
          <mxGeometry width="50" height="50" relative="1" as="geometry">
            <mxPoint x="210" y="420" as="sourcePoint"/>
            <mxPoint x="410" y="560" as="targetPoint"/>
            <Array as="points"/>
          </mxGeometry>
        </mxCell>
        <mxCell id="45" value="" style="endArrow=classic;html=1;shadow=0;exitX=1;exitY=0.5;" parent="1" source="37" edge="1">
          <mxGeometry width="50" height="50" relative="1" as="geometry">
            <mxPoint x="230" y="440" as="sourcePoint"/>
            <mxPoint x="280" y="560" as="targetPoint"/>
            <Array as="points"/>
          </mxGeometry>
        </mxCell>
        <mxCell id="46" value="サブタスク 1 の要請" style="ellipse;shape=cloud;whiteSpace=wrap;html=1;" parent="1" vertex="1">
          <mxGeometry x="220" y="340" width="240" height="80" as="geometry"/>
        </mxCell>
        <mxCell id="56" value="サブタスク 2 の要請" style="ellipse;shape=cloud;whiteSpace=wrap;html=1;" parent="1" vertex="1">
          <mxGeometry x="490" y="340" width="220" height="80" as="geometry"/>
        </mxCell>
        <mxCell id="72" value="" style="shape=curlyBracket;whiteSpace=wrap;html=1;rounded=1;" parent="1" vertex="1">
          <mxGeometry y="225" width="20" height="225" as="geometry"/>
        </mxCell>
        <mxCell id="74" value="1 [tick]" style="text;html=1;resizable=0;points=[];autosize=1;align=left;verticalAlign=top;spacingTop=-4;" parent="1" vertex="1">
          <mxGeometry x="-50" y="328" width="50" height="20" as="geometry"/>
        </mxCell>
        <mxCell id="75" value="要請を受理するか&lt;div&gt;拒否するかの判断&lt;/div&gt;" style="rounded=1;whiteSpace=wrap;html=1;" parent="1" vertex="1">
          <mxGeometry x="229" y="610" width="120" height="45" as="geometry"/>
        </mxCell>
        <mxCell id="76" value="要請を受理するか&lt;div&gt;拒否するかの判断&lt;/div&gt;" style="rounded=1;whiteSpace=wrap;html=1;" parent="1" vertex="1">
          <mxGeometry x="354" y="610" width="119" height="45" as="geometry"/>
        </mxCell>
        <mxCell id="84" value="要請を受理するか&lt;div&gt;拒否するかの判断&lt;/div&gt;" style="rounded=1;whiteSpace=wrap;html=1;" parent="1" vertex="1">
          <mxGeometry x="481" y="610" width="119" height="45" as="geometry"/>
        </mxCell>
        <mxCell id="85" value="要請を受理するか&lt;div&gt;拒否するかの判断&lt;/div&gt;" style="rounded=1;whiteSpace=wrap;html=1;" parent="1" vertex="1">
          <mxGeometry x="616" y="610" width="109" height="45" as="geometry"/>
        </mxCell>
        <mxCell id="91" value="&lt;b&gt;&lt;i&gt;&lt;u&gt;受理&amp;nbsp;&lt;/u&gt;&lt;/i&gt;&lt;/b&gt;返信" style="shape=step;perimeter=stepPerimeter;whiteSpace=wrap;html=1;fixedSize=1;" parent="1" vertex="1">
          <mxGeometry x="225" y="700" width="120" height="40" as="geometry"/>
        </mxCell>
        <mxCell id="93" value="&lt;b&gt;&lt;i&gt;&lt;u&gt;受理&amp;nbsp;&lt;/u&gt;&lt;/i&gt;&lt;/b&gt;返信" style="shape=step;perimeter=stepPerimeter;whiteSpace=wrap;html=1;fixedSize=1;" parent="1" vertex="1">
          <mxGeometry x="345" y="700" width="120" height="40" as="geometry"/>
        </mxCell>
        <mxCell id="94" value="&lt;b&gt;&lt;i&gt;&lt;u&gt;拒否&amp;nbsp;&lt;/u&gt;&lt;/i&gt;&lt;/b&gt;返信" style="shape=step;perimeter=stepPerimeter;whiteSpace=wrap;html=1;fixedSize=1;" parent="1" vertex="1">
          <mxGeometry x="480" y="700" width="120" height="40" as="geometry"/>
        </mxCell>
        <mxCell id="95" value="&lt;b&gt;&lt;i&gt;&lt;u&gt;受理&amp;nbsp;&lt;/u&gt;&lt;/i&gt;&lt;/b&gt;返信" style="shape=step;perimeter=stepPerimeter;whiteSpace=wrap;html=1;fixedSize=1;" parent="1" vertex="1">
          <mxGeometry x="611" y="700" width="120" height="40" as="geometry"/>
        </mxCell>
        <mxCell id="99" value="" style="shape=curlyBracket;whiteSpace=wrap;html=1;rounded=1;" parent="1" vertex="1">
          <mxGeometry x="200" y="610" width="20" height="120" as="geometry"/>
        </mxCell>
        <mxCell id="100" value="1[tick]" style="text;html=1;resizable=0;points=[];autosize=1;align=left;verticalAlign=top;spacingTop=-4;" parent="1" vertex="1">
          <mxGeometry x="169" y="647" width="50" height="20" as="geometry"/>
        </mxCell>
        <mxCell id="102" value="" style="endArrow=classic;html=1;shadow=0;exitX=0;exitY=0.75;" parent="1" source="91" edge="1">
          <mxGeometry width="50" height="50" relative="1" as="geometry">
            <mxPoint x="10" y="960" as="sourcePoint"/>
            <mxPoint x="140" y="770" as="targetPoint"/>
          </mxGeometry>
        </mxCell>
        <mxCell id="106" value="" style="endArrow=classic;html=1;shadow=0;exitX=0;exitY=0.75;" parent="1" source="93" edge="1">
          <mxGeometry width="50" height="50" relative="1" as="geometry">
            <mxPoint x="247" y="738" as="sourcePoint"/>
            <mxPoint x="140" y="860" as="targetPoint"/>
          </mxGeometry>
        </mxCell>
        <mxCell id="107" value="" style="endArrow=classic;html=1;shadow=0;exitX=0;exitY=0.75;" parent="1" source="94" edge="1">
          <mxGeometry width="50" height="50" relative="1" as="geometry">
            <mxPoint x="257" y="748" as="sourcePoint"/>
            <mxPoint x="140" y="920" as="targetPoint"/>
          </mxGeometry>
        </mxCell>
        <mxCell id="108" value="" style="endArrow=classic;html=1;shadow=0;exitX=0;exitY=0.75;" parent="1" source="95" edge="1">
          <mxGeometry width="50" height="50" relative="1" as="geometry">
            <mxPoint x="267" y="758" as="sourcePoint"/>
            <mxPoint x="140" y="990" as="targetPoint"/>
          </mxGeometry>
        </mxCell>
        <mxCell id="118" value="次の要請を待機" style="rounded=1;whiteSpace=wrap;html=1;arcSize=19;" parent="1" vertex="1">
          <mxGeometry x="476" y="820" width="119" height="30" as="geometry"/>
        </mxCell>
        <mxCell id="137" value="チーム編成" style="rounded=1;whiteSpace=wrap;html=1;" parent="1" vertex="1">
          <mxGeometry x="90" y="1045" width="95" height="30" as="geometry"/>
        </mxCell>
        <mxCell id="141" value="チーム成立通知(サブタスク割り当て)&lt;div&gt;&amp;amp;&amp;nbsp;&lt;/div&gt;&lt;div&gt;エージェントBへの不採用通知&lt;/div&gt;" style="shape=step;perimeter=stepPerimeter;whiteSpace=wrap;html=1;fixedSize=1;" parent="1" vertex="1">
          <mxGeometry x="17" y="1109" width="241" height="60" as="geometry"/>
        </mxCell>
        <mxCell id="142" value="" style="endArrow=classic;html=1;shadow=0;fillColor=none;exitX=1;exitY=0.5;" parent="1" source="141" edge="1">
          <mxGeometry width="50" height="50" relative="1" as="geometry">
            <mxPoint x="-240" y="1440" as="sourcePoint"/>
            <mxPoint x="280" y="1290" as="targetPoint"/>
          </mxGeometry>
        </mxCell>
        <mxCell id="143" value="" style="endArrow=classic;html=1;shadow=0;fillColor=none;exitX=1;exitY=0.5;" parent="1" source="141" edge="1">
          <mxGeometry width="50" height="50" relative="1" as="geometry">
            <mxPoint x="220.64705882352928" y="1159.1176470588236" as="sourcePoint"/>
            <mxPoint x="410" y="1280" as="targetPoint"/>
          </mxGeometry>
        </mxCell>
        <mxCell id="144" value="" style="endArrow=classic;html=1;shadow=0;fillColor=none;exitX=1;exitY=0.5;" parent="1" source="141" edge="1">
          <mxGeometry width="50" height="50" relative="1" as="geometry">
            <mxPoint x="220.64705882352928" y="1159.1176470588236" as="sourcePoint"/>
            <mxPoint x="670" y="1300" as="targetPoint"/>
          </mxGeometry>
        </mxCell>
        <mxCell id="149" value="" style="ellipse;whiteSpace=wrap;html=1;aspect=fixed;strokeColor=#3333FF;shadow=0;fillColor=none;" parent="1" vertex="1">
          <mxGeometry x="393" y="1299" width="40" height="40" as="geometry"/>
        </mxCell>
        <mxCell id="151" value="" style="ellipse;whiteSpace=wrap;html=1;aspect=fixed;strokeColor=#FF3333;shadow=0;fillColor=none;" parent="1" vertex="1">
          <mxGeometry x="263" y="1311" width="40" height="40" as="geometry"/>
        </mxCell>
        <mxCell id="152" value="" style="ellipse;whiteSpace=wrap;html=1;aspect=fixed;strokeColor=#FF3333;shadow=0;fillColor=none;" parent="1" vertex="1">
          <mxGeometry x="650" y="1307" width="40" height="40" as="geometry"/>
        </mxCell>
        <mxCell id="154" value="" style="ellipse;whiteSpace=wrap;html=1;aspect=fixed;strokeColor=#00AD00;shadow=0;fillColor=none;" parent="1" vertex="1">
          <mxGeometry x="266" y="1420" width="40" height="40" as="geometry"/>
        </mxCell>
        <mxCell id="159" value="" style="ellipse;whiteSpace=wrap;html=1;aspect=fixed;strokeColor=#000000;shadow=0;fillColor=none;" parent="1" vertex="1">
          <mxGeometry x="393" y="1314" width="40" height="40" as="geometry"/>
        </mxCell>
        <mxCell id="161" value="サブタスク処理" style="rounded=1;whiteSpace=wrap;html=1;arcSize=19;" parent="1" vertex="1">
          <mxGeometry x="224" y="1359.8235294117646" width="119" height="30" as="geometry"/>
        </mxCell>
        <mxCell id="162" value="サブタスク処理" style="rounded=1;whiteSpace=wrap;html=1;arcSize=19;" parent="1" vertex="1">
          <mxGeometry x="608" y="1360.8235294117646" width="119" height="30" as="geometry"/>
        </mxCell>
        <mxCell id="166" value="" style="ellipse;whiteSpace=wrap;html=1;aspect=fixed;strokeColor=#00AD00;shadow=0;fillColor=none;" parent="1" vertex="1">
          <mxGeometry x="651" y="1416" width="40" height="40" as="geometry"/>
        </mxCell>
        <mxCell id="169" value="" style="ellipse;whiteSpace=wrap;html=1;aspect=fixed;strokeColor=#00AD00;shadow=0;fillColor=none;" parent="1" vertex="1">
          <mxGeometry x="116" y="1243" width="40" height="40" as="geometry"/>
        </mxCell>
        <mxCell id="170" value="次のタスクを取得" style="rounded=1;whiteSpace=wrap;html=1;arcSize=19;" parent="1" vertex="1">
          <mxGeometry x="78" y="1286.8235294117646" width="119" height="30" as="geometry"/>
        </mxCell>
        <mxCell id="171" value="サブタスク処理" style="rounded=1;whiteSpace=wrap;html=1;arcSize=19;" parent="1" vertex="1">
          <mxGeometry x="78" y="1204.8235294117646" width="119" height="30" as="geometry"/>
        </mxCell>
        <mxCell id="175" value="" style="shape=curlyBracket;whiteSpace=wrap;html=1;rounded=1;" parent="1" vertex="1">
          <mxGeometry x="-10" y="1040" width="20" height="130" as="geometry"/>
        </mxCell>
        <mxCell id="176" value="1[tick]" style="text;html=1;resizable=0;points=[];autosize=1;align=left;verticalAlign=top;spacingTop=-4;" parent="1" vertex="1">
          <mxGeometry x="-50" y="1090" width="50" height="20" as="geometry"/>
        </mxCell>
        <mxCell id="177" value="&amp;nbsp;[ticks]" style="text;html=1;resizable=0;points=[];autosize=1;align=left;verticalAlign=top;spacingTop=-4;" parent="1" vertex="1">
          <mxGeometry x="229" y="1240" width="50" height="20" as="geometry"/>
        </mxCell>
        <mxCell id="178" value="&amp;nbsp;[ticks]" style="text;html=1;" parent="1" vertex="1">
          <mxGeometry x="325" y="1235" width="80" height="30" as="geometry"/>
        </mxCell>
        <mxCell id="180" value="&amp;nbsp;[ticks]" style="text;html=1;" parent="1" vertex="1">
          <mxGeometry x="576" y="1233" width="80" height="30" as="geometry"/>
        </mxCell>
        <mxCell id="181" value="" style="shape=curlyBracket;whiteSpace=wrap;html=1;rounded=1;" parent="1" vertex="1">
          <mxGeometry x="50" y="1200" width="20" height="120" as="geometry"/>
        </mxCell>
        <mxCell id="182" value="1 [tick]" style="text;html=1;resizable=0;points=[];autosize=1;align=left;verticalAlign=top;spacingTop=-4;" parent="1" vertex="1">
          <mxGeometry y="1250" width="50" height="20" as="geometry"/>
        </mxCell>
        <mxCell id="188" value="1 [tick]" style="text;html=1;resizable=0;points=[];autosize=1;align=left;verticalAlign=top;spacingTop=-4;" parent="1" vertex="1">
          <mxGeometry x="510" y="1420" width="50" height="20" as="geometry"/>
        </mxCell>
        <mxCell id="189" value="" style="shape=curlyBracket;whiteSpace=wrap;html=1;rounded=1;" parent="1" vertex="1">
          <mxGeometry x="575" y="1330" width="20" height="190" as="geometry"/>
        </mxCell>
        <mxCell id="190" value="" style="shape=curlyBracket;whiteSpace=wrap;html=1;rounded=1;shadow=0;strokeColor=#000000;fillColor=none;direction=west;" parent="1" vertex="1">
          <mxGeometry x="478" y="1320" width="20" height="70" as="geometry"/>
        </mxCell>
        <mxCell id="191" value="1 [tick]" style="text;html=1;resizable=0;points=[];autosize=1;align=left;verticalAlign=top;spacingTop=-4;" parent="1" vertex="1">
          <mxGeometry x="496" y="1301" width="50" height="20" as="geometry"/>
        </mxCell>
        <mxCell id="195" style="edgeStyle=orthogonalEdgeStyle;rounded=0;html=1;exitX=0.5;exitY=1;entryX=0.5;entryY=1;shadow=0;jettySize=auto;orthogonalLoop=1;fillColor=none;" parent="1" edge="1">
          <mxGeometry relative="1" as="geometry">
            <mxPoint x="414" y="1391" as="sourcePoint"/>
            <mxPoint x="414" y="1391" as="targetPoint"/>
          </mxGeometry>
        </mxCell>
        <mxCell id="196" value="1 [tick]" style="text;html=1;resizable=0;points=[];autosize=1;align=left;verticalAlign=top;spacingTop=-4;" parent="1" vertex="1">
          <mxGeometry x="129" y="1402" width="50" height="20" as="geometry"/>
        </mxCell>
        <mxCell id="197" value="" style="shape=curlyBracket;whiteSpace=wrap;html=1;rounded=1;" parent="1" vertex="1">
          <mxGeometry x="194" y="1327" width="20" height="190" as="geometry"/>
        </mxCell>
        <mxCell id="229" value="" style="shape=image;verticalLabelPosition=bottom;labelBackgroundColor=#ffffff;verticalAlign=top;aspect=fixed;imageAspect=0;image=data:image/png,iVBORw0KGgoAAAANSUhEUgAAADIAAAAxCAYAAACYq/ofAAAGs0lEQVRoBe0aW2wUVfTcmdlHS2tb6WNfpd1ay0SzLLWKYgHBqMmilT8bjSYaHyQgMcbAn8n6oR8IX0QTGg38qOHLWEE00fAISCIYaFEpiH0u22fa3bZ0nzPX3Nmemdndru12dxuN3WR7HnPOuefcO+fcc+8WYPXzP56BlpaWYgpA/tNTYLHVnrNbrbTWVnWtEIFwhTCaZtNLOY7GtyX4hVmQFQqEyIJ5TTvPcx3NzoqtaYGuMrQZyGGdKfF4dhpnfL7i2RhfFqKhyiISmbjW09+vmV85bFmBWJo9VfzItbFUNzkS7x/yjzuRv327V+jrO/YuyHJNsYF8f6N38Ed8lm/IL8fgw+LL0emZ67M8x/0sU7oRAMzMzj1msns8MPs7wytbny8N3O4MgSw9QikRIrH4+9Xlxbap6bsnlzNmwXVq7Ou+ZWWVfT3NliocsEbhVVNG1zS4nkrIJGiUySfMuWpxcuy5hEMyfHd1ZILhdnFTkwAAzjJ5PaNJJPiOAgkNJGTz/zenQNa5nq1AAwZCzxMAZQWk0NQuAAku9EzcAs8+EwZbZCAf5T+EhEX0Y1n2o7O3n0bFEhP3CeIjA39+fGd4TCkklj9Ov44VZUeloMqgbL5gToFANPQKOlJbDmcQT4LRu4rzHJG6On71zyU9yyORUyBkgfzQ+2YRH6vHsmgt5d9gzxpEl2uz22HXy+UDX1IgLteWClEUXU0NDVu2Njcqlamk2VOFyvr80DtFZ/xHErQEv9wcvsLwcHCiOxCI7tLL5QNnxSXjxyG6XHJwonty4i9VpjcE8IDT3h4I9IWQaTbSY4jrIa5YiREOML7N+WAbCU/C1krh+I0BvWTuOE5qmiVbrfMQDU50s0QtNpIDd4aHCftSY/GBYFg+QcLBTlRyVvCnENdDSohSbs28cKlB3NREwpOdRYJ0uBC5ggVFPz5YHXVfclL0RcYsNdHXevpHjusF2NmCV9tyGXzDoxyWXr2cQ2xx0aC/G3lGXu7o843uRrqg0FLXuAd36npb9bmFBmMOLiaj6VHS2tpa6vE0mjRe/rGkHGH9Ed97eb7WU2hzjz1zxJ8+qBy5W49LmSk/NC1CL16EGY0uDJaUI4aBrqM4jJGjJ4+chgjSeihH595COlN+4POVgmogbDUwL9jgVSXcB5mcwGoEoPVXmWRXiq8GIvhverRBKey0Di94ScDOIqiUaf/Q7KwcpuWILFXisByRu7xnIY50Egz07kB68fxAyXSo7PrTA2fY7RABKKdUKvftHuWJF+R06cU5OLlAY2H1vS82wBcZVSNze/GZPj+yva8y0NlKDsggpbSeUlqONpcL1UD0Bsw8vaSnNZwSots/8PzBXjeH1SpTLyxoT9PXsKGbv10Z8vufkIlwnnE5QruWuxqKPprWe1Bh5H3I18O17sdtKJeUH5O3XmXnj6wd8XrV+64iA3Tox8oWR7+AGkzq68SZhNhChgzjAxeQX2SAE4jT6NxBVq6RXip0fP2DFfcjR7nxm6XqLSSnBmK8R/wMBfzBuHpgQp5VaUtovUrPD+xwb7azilFVImQs16iTCuOB8fkuWIafunwLbL2pGplpNZDB66emJMF8mInORMixJ+fPDE3uzXar1UrZlWeJeU27cpYFgMGp6JtMNq6sktamZxqqye2219XV7amrrT3krHPsp0AJxCLtTF7Jj/ljcib9xfi4sqoc63pJPPyeymCXB0QOuNeaGk5dH5xKbQSZ3AYLrT59dWRcr6PiXi9n6/j8TKJIUDAKhsPReDzJ/hqjtPfWwNinqk6+kEaPx+R2u+1uUWza4nJVpNr1er2cKIr17LD1j82gZ5+JrSZrMJMa0O1eAfnsGa5+6jjZ0Gkrko3yYrJWm22KU/YICfAyAnVYl80r5/nMxwCUXQpUc2QpwtnI2JxiWyIIgPvLOPUaFW3gBpyP/GA2CxaIpJ4gJTjbM5JysU0JRyU3cyDX/QMnpkCBUIK3JwYCys6NAzLo0G2sue4faLcggViad1Zi8hkMkLZRpu8flDQ617WhU8uBBQlkpOzRKdxvaooM6Tt2bG4/cxbzo6phY2soHOvMpldLDbYggcBZbxwDkSCedFa3O9e/wNNEh1Ay31/x4ckP2U1k1r2aLprCBAIA7NqIjTM0Def3eRpN7Ecfu6P+KISn1R5NolDdyH40ovFt95rp2zq/skbxVc5acSkKtrr79pPo3EFNloKlTNgwu/ah/pney9M4uIGXv+r3jb6kyf0rscR1EPtngVT3GK+1dX1pKn+VXp2B1RlYnYGMM/A3mQRZxi1wH6YAAAAASUVORK5CYII=;" parent="1" vertex="1">
          <mxGeometry x="553" y="1229" width="30" height="29" as="geometry"/>
        </mxCell>
        <mxCell id="242" value="" style="shape=image;verticalLabelPosition=bottom;labelBackgroundColor=#ffffff;verticalAlign=top;aspect=fixed;imageAspect=0;image=data:image/png,iVBORw0KGgoAAAANSUhEUgAAADIAAAAxCAYAAACYq/ofAAAGc0lEQVRoBe0aa2xTZfR89/a5B9ug23pvV9bWORpNHcuUiGMGjJgUBBL+oIkm4ItkRI3R8M+k/PGHwi+i0cUE/mgg/hLB8cMEUB6JjzC2KGOOvdy6wpq13auPtfczX8u593ZrUdvbEXVNunPO953n991z7vm+DmD18z9egba2tjIKQP7VS2AV7ZdsgkDtYm1PKQLhSqF0mU4f5TiafDozXpoNWaFAiKQzle/jea6r1VnTsSzQ1QFlBYrYZ0q83h2G2fHxsrlFvipKoxYziQd7+kdGFPUrhxUUiLXVW8sHeu4udZMjyZE//FNOHN+61acbHj7xDkhSfZmenL85NPYdzmkN+UIUPu5+KTEz2zfHc9xVidKNAGBietaYyMGp8NyvDLe0764MD56JgpR6glKiiy8m36+rLhNDM/NnC7FZcpl62/pvWFllX2+rtRYN1qfH6iij612eZzM8GRp5tIRFVy1OWnw+45AE314PBBluc29q1gGAs0rawGgSj7ydhoSGM7za/y0qkPWenTWoQE/o9wQgvQOpaGgPQAou9wcHwPumEYM168kH2oeQ0Yh+FKQ/MTe4HQUrjNzHiAdGf/9oYvJuupBYf+t+FSvKNotO5kFerWBRgUAi+jI6Yq+GC4hnwcR82nmOpG50/eJfyJrTkCgqEJIjP9S+Wd1POrAsCpX8a2zO5fZ4Nrc02NR8WuB/KxCPZ0uN2+32NLtcWzpam9KVqaLVW4vC6vxQO0Vn/cczdAp+vDX5M8NjkWBvOJzYo+bTAmfFJe+nwe3xSJFg73TwtswzFAV4xGnbFw4PR3HQZKAnEFdD3LEKAxxm46Lz0V0kNg0dFt3Jm6NqzuJxXNRlmkS78yiNBHtZopYZyOGJyUnCvtRQdjgSk06TWOQMCjlr+HOIqyElJF1uTbzumsu9qZnEps+YdaljpcgVLChq+yA0NH7JpRIvssFKIz3QPxI4qWZgZwtebsslGJ+8w2HpVfM1uNs8NOLvxTEDL3UNj985iHRJobWxqRPf1A6x7lIuY8zBv+JR5Chpb2+v9HqbjMqY9lhWjrD+iB/66V6tp7Cr5e5zx/3LjUrxeQduZb78UKQIvXIFZhW6NFhWjuhHb3yGZgwcPXu8G+JIq6GUWHgD6Xz5gfMrBeVA2G5gXjDjtRXckXxOYDUCUPqrfLwrNS4HovPf8ipGKewQJnNeErCzCArle38oelYOU3JESlnQLEekG76LkEQ6C4aHtiF9//ygRBTtFzmgVQC0kVJanasCoq5iIS4u0MWY/NyX6eGLvIrjC4dwTp0fue6rCIEZCrSKBcFkLKbkVZTVGsqBqBWbeHpNTSs4JUT1/sDzB3vcGgRBoj5Q6SN0YmJ8V9JY81ZGnsIPLwQHFV3aYrJhGQGAGgM/nsvMupanROTLyo/pgf3s/EF8IC2VI/GZ99gYR6SRXPNL+Qul0S+geqP8OHFG3WIuhfqp0cs4btbDacRpYuFDVq6RVqCygyY994kyrj0mB2JY4/4c1fsjSfnAhGNCui2hDpmuNnzN8IaWzTZWMWordMvKtbV1hwUN2MzwFcqWAqIdGOs7F0rpTMeYkdk4OfHMvTNDc8tmmyAIlF15VpjK96XPsgAwFkq8zniT6V1S2vQsJ0ODOzO0BCmzMO9wPLS/0W4/6mq0d+5u31CZxVskgZ2GrIZ1vSQZe1ceYJcHRAq3rDO6zvWNhZY2gozvMSut674emFLLMDy7uWQjFHje0JVKLaYr5Foz2d435NfkrmtZIMxck9drLPf7LRCPl1fq9VOX+/pCaid9Ph936tSp9aw5djqTA93dgzlaGUoEQZRwy8sN9NDAaCCdJ9bWjlo+MJi+4Nu7cdKUrxVS23xgOCvJ2CE3N1o7sxzxUQ7n3A7r/qy5AglcsALF7yMm5weFWwcCn2Zx+oBirqWoJF/qZfH8Q6J0gSRiB5gvrN1Z+v5g1Qyfaa0c0ErPkvVTvz+WtztcZKQFBdaayXnEi4GlCcR3hOCKW3I4ShMLr6DTtetSmvwMUZpA0EsASFEu64irPvewi4gzV4KanB5x4VSmtUGtojjMU+p4uIo6L/YH5FUXRDHEpbvh/JcWhXhQuh0xlKdbltsz9AK7eGA/+ghiQw8GsXfjHVOum5dCgmAyJdsRplxsdHWSRDTr4tqsJ0cGx/y+Qh1+gHKUsH8UYN8H6MSq6dUVWF2B/8oK/AmCp0cnZOK6fgAAAABJRU5ErkJggg==;" parent="1" vertex="1">
          <mxGeometry x="306" y="1233" width="30" height="29" as="geometry"/>
        </mxCell>
        <mxCell id="243" value="" style="shape=image;verticalLabelPosition=bottom;labelBackgroundColor=#ffffff;verticalAlign=top;aspect=fixed;imageAspect=0;image=data:image/png,iVBORw0KGgoAAAANSUhEUgAAADIAAAAwCAYAAABT9ym6AAAGeklEQVRoBe0ZSWwbVfT9GY/tbE1Cs3iN42BSC+S6IVAoaUuKAMmF0BsVCCQQS6VChRBqb0jmAIfSnqoeGiG1F6CVuBBawgFEG7VUoqBmETRpS7a6zqrYzuZ15qNv543HsU2T2E5BxJL9lnn/Lf/Pe//9b4CNz/94Bpqbm4spAPlPT4HOYL5k1Oup2VDdXYhAuEIoTdPpphxHY7sT/MIsyDoFQiSVtmQ/z3PtTdbKXWmBbjCSM5DDOlPicu1Vz3k8xfNRvjxIg1VFJDzd3T88nFS/ftiaAtE1uar58e7J5W5yJDZ8xztlRX5rq1s1NHT6Q5Ck2mKB/HBjcPRHfJZvyK9F4WP21yKzc33zPMf9IlG6DQC0TM8mLTkw5Z//g+FVLS+V+W93BEESH6eUqMLR2Mc1FcUG3+zC+bXYLPiYWmPdd6yssq+rSVeNBmvjvBrK6NoGx7MJmQSNMvmEOVctToq+mHBIgu+vj08z3Gjf3qgCAGu5tIXRJBz4IA4J9Sdk8/+bUyB1jhcqUYFAaBcBiK+AGPTtAxDhcv/0TXAd0mCwRQL5LP8hJDSiH2vSH5m//RwOLNVwJxEfH7n1+d2xyXgh0f3Z+RZWlD1VKlkGZfMFcwoEIsHX0RFzBfyMeAqMLMSd54jY0/67dzHlWR6JnAIhGfJD6ZvO/mQ9lkV9Gf82e9Zgdzh2OE1GpVw+8BUF4nDsrLTb7Y7Ghoadu5ps8cpU2uSqxsHK/FA6Ree8JxK0CL8OjP3G8FBgutfvj+xTyuUDZ8Ul68dkdzikwHTvzPRfssxgEOBhq3G/3z8URKZWTU8jroS4YqVqOML4BusjbSQ0A7uqVGdujCglc8dxUtM0GczWYzQw3csStVhNjtwdGyPsS9XFRwIh6RwJBTpwkLWSv4C4ElJC4uVWy6uuNti3N5LQTEeRSjxeiFzBgqK0D3qT5StOjLzCmGUa+mb/8PgZpQA7W/ByWy6BZ2yCw9KrlDPZmx004O1FnpqX2oc8EweQLijUWWwHcaeuN9RcymSMOXgvmeQ4SlpaWspcLpsmycs/lpIjrD/iB68t1XoKbc7J5094041K4YV6XMps+ZEcReiVKzCXpAuDpeSIMNJzCs2oOXr+RCeEkVZCKbL4LtLZ8gOfrxeUA2GrgXnBjFeXcp9kcwKrEUCyv8omu158ORCVd8CVNEphr34s4yUBO4vgoGz7R1LP+mHoE4AkVqFZjkg97osQQzoF+gf3IH3v/EDJwkM5EBoNye99sQBfZjUdXnwPnynz437fV8mBoHMManl6VUkncUqIYv/A8wd73Ux6vUTdkFFfcnzhMNmwjABApZr3ZDK52fmUAeVS8mPm5hvs/EHcIGUatx489AuooJFfJ06jimYyLkyNXEZ+kQDnEKeRxaOsXCN9P6AciHqT/Qt0wBuIyQcm5OnjbQmtl+kK9bcMNzl3GNmuWl2qylqumVyj02m0WCwHLWbzMavFdBhzqrW1NWVTRv2rhXIgo30XfKJKe5wpmAuT088snRkanTuMer2esivPUm3J/vhZFgBGfZF3mGwsvkrJNj3NAbebMxjMlxYmJz2xSPgkMxiJiEdZTrE259bAQBRtpY1dBQM7DXkI63pJLPSRzGCXB0TyOzdrGi70jfqWN4JMbquO1nReH59SjonjrkMaffc3Iea8QMSuYe/k03F+q1ulHzgVxVl8qJxaL/aP53SxlxYIM2RzuTQlXm8VhMMlZYIwdbmvz6d00u12c2fPnq1jzbHVGrvZ2Xk7YyujNxh8HKUVrBDgGR71sOaUjx+DJfAcmODvZ6FAnzJCg9Xehh1yq10n5xYK1xpM3ey52VCTsYNAuZVCXN2Vyq9YTpQPXiKkvzaUcFR0MmVFArSvWOk/CBYoEErw0kEg0LXcvkmxH5mWqt9ymdXSBQlE17S3CpNPECBtf4n5p5YuHyT4qcfjBaDEZq1rW63zSvmCBDJe/oQPy3RtkRDfb5RGIbp4mNEcoT3siFzdsK0lGIp25NLiFCQQuOiOYSAixFKOuEbrlpd5mthYS5fygw/NfMou8HKpXIUJBADYbQub9Tuz0HXIZdOw/0qMpvpTEJqVWxuRQo2N/ddCY7sf0NL3U1ZtlQS+yqsctjJxg+XBwySyeDQpTUFXrto6v/nR4bnBa7NoXOClr4c9E68m5f6VWOIWhf3Hvtw9xmtp2VK2nL9Bb8zAxgxszEDWGfgbvA484jKCP5cAAAAASUVORK5CYII=;" parent="1" vertex="1">
          <mxGeometry x="207" y="1233" width="30" height="29" as="geometry"/>
        </mxCell>
        <mxCell id="BeG_7mEqr--8YyucupKQ-247" value="次の要請を待機" style="rounded=1;whiteSpace=wrap;html=1;arcSize=19;" vertex="1" parent="1">
          <mxGeometry x="354" y="1360" width="119" height="30" as="geometry"/>
        </mxCell>
        <mxCell id="BeG_7mEqr--8YyucupKQ-248" value="次の要請を待機" style="rounded=1;whiteSpace=wrap;html=1;arcSize=19;" vertex="1" parent="1">
          <mxGeometry x="226" y="1485" width="119" height="30" as="geometry"/>
        </mxCell>
        <mxCell id="BeG_7mEqr--8YyucupKQ-249" value="次の要請を待機" style="rounded=1;whiteSpace=wrap;html=1;arcSize=19;" vertex="1" parent="1">
          <mxGeometry x="610.5" y="1480" width="119" height="30" as="geometry"/>
        </mxCell>
      </root>
    </mxGraphModel>
  </diagram>
</mxfile>
